<!DOCTYPE svg PUBLIC "-//W3C//DTD SVG 20010904//EN" "http://www.w3.org/TR/2001/REC-SVG-20010904/DTD/svg10.dtd">
<svg version="1.0" xmlns="http://www.w3.org/2000/svg" width="62px" height="62px" viewBox="0 0 620 620" preserveAspectRatio="xMidYMid meet">
<g id="layer1" fill="#fcfcfe" stroke="none">
 <path d="M452 487 c-39 -40 -72 -78 -72 -85 0 -16 0 -16 -51 8 -166 75 -336 -91 -260 -255 22 -48 54 -79 103 -100 162 -67 321 102 248 264 -24 51 -24 51 -7 51 7 0 46 34 87 75 73 73 73 75 55 95 -10 11 -21 20 -24 20 -4 0 -39 -33 -79 -73z m-143 -135 c92 -50 92 -186 0 -232 -47 -25 -78 -25 -125 -3 -39 19 -74 74 -74 118 0 42 36 100 72 118 43 22 86 21 127 -1z"/>
 </g>
<g id="layer2" fill="#78a0ed" stroke="none">
 <path d="M29 591 l-29 -29 0 -252 0 -252 29 -29 29 -29 252 0 252 0 29 29 29 29 0 252 0 252 -29 29 -29 29 -252 0 -252 0 -29 -29z m526 -51 c18 -20 18 -22 -55 -95 -41 -41 -80 -75 -87 -75 -17 0 -17 0 7 -51 73 -162 -86 -331 -248 -264 -49 21 -81 52 -103 100 -76 164 94 330 260 255 51 -24 51 -24 51 -8 0 13 139 158 151 158 3 0 14 -9 24 -20z"/>
 <path d="M182 353 c-36 -18 -72 -76 -72 -118 0 -44 35 -99 74 -118 47 -22 78 -22 125 3 92 46 92 182 0 232 -41 22 -84 23 -127 1z"/>
 </g>

</svg>